<?xml version="1.0" encoding="UTF-8" standalone="no"?>
<svg
   xmlns:dc="http://purl.org/dc/elements/1.1/"
   xmlns:cc="http://creativecommons.org/ns#"
   xmlns:rdf="http://www.w3.org/1999/02/22-rdf-syntax-ns#"
   xmlns:svg="http://www.w3.org/2000/svg"
   xmlns="http://www.w3.org/2000/svg"
   xml:space="preserve"
   style="enable-background:new 0 0 24 24;"
   viewBox="0 0 24 24"
   y="0px"
   x="0px"
   id="Laag_1"
   version="1.1"
   height="28px"
   width="30px"><metadata
   id="metadata5352"><rdf:RDF><cc:Work
       rdf:about=""><dc:format>image/svg+xml</dc:format><dc:type
         rdf:resource="http://purl.org/dc/dcmitype/StillImage" /><dc:title>Information</dc:title></cc:Work></rdf:RDF></metadata><defs
   id="defs5350">
	
		

		
	
			
			
		
				
			</defs>
<style
   id="style5334"
   type="text/css">
	.st0{fill:#398684;}
	.st1{fill:#398684;}
</style>
<title
   id="title5336">Information</title>
<desc
   id="desc5338">Created with Sketch.</desc>
<path
   style="fill:#398684;fill-opacity:1"
   id="path5340"
   d="M 12,23.5 C 5.7,23.5 0.5,18.3 0.5,12 0.5,5.7 5.7,0.5 12,0.5 c 6.3,0 11.5,5.2 11.5,11.5 0,6.3 -5.2,11.5 -11.5,11.5 z m 0,-22 C 6.2,1.5 1.5,6.2 1.5,12 1.5,17.8 6.2,22.5 12,22.5 17.8,22.5 22.5,17.8 22.5,12 22.5,6.2 17.8,1.5 12,1.5 Z"
   class="st0" /><path
   id="Fill-1"
   class="st1"
   d="M 13.7,8.1 C 13.5,8.3 13.2,8.4 12.8,8.4 12.5,8.4 12.2,8.3 11.9,8.1 11.7,7.9 11.6,7.7 11.6,7.3 c 0,-0.3 0.1,-0.6 0.3,-0.8 0.2,-0.2 0.5,-0.3 0.9,-0.3 0.4,0 0.7,0.1 0.9,0.3 0.2,0.2 0.3,0.5 0.3,0.8 0,0.4 -0.1,0.6 -0.3,0.8 z m -0.5,8.2 v 0.5 C 13.1,17 13,17 12.8,17.1 c -0.2,0.1 -0.4,0.1 -0.6,0.2 -0.2,0.1 -0.4,0.1 -0.6,0.1 -0.2,0 -0.4,0 -0.6,0 -0.4,0 -0.6,-0.1 -0.8,-0.2 -0.1,0 -0.2,-0.2 -0.2,-0.4 0,-0.2 0,-0.4 0,-0.6 0,-0.2 0.1,-0.4 0.1,-0.6 l 1,-4.7 -1,-0.2 v -0.5 c 0.1,0 0.3,-0.1 0.6,-0.2 0.2,-0.1 0.5,-0.1 0.8,-0.2 0.3,0 0.6,-0.1 0.8,-0.1 0.3,0 0.5,0 0.7,0 l 0.3,0.2 -1.4,6.5 h 1.3 z"
   style="fill:#398684;fill-opacity:1" />
</svg>
