<svg width="20" height="20" viewBox="0 0 20 20" xmlns="http://www.w3.org/2000/svg">
  <path d="M10 0c5.523 0 10 4.477 10 10s-4.477 10-10 10S0 15.523 0 10 4.477 0 10 0zm3.044 14.001H6.956C7.606 16.708 8.852 18.5 10 18.5c1.148 0 2.394-1.792 3.044-4.499zm-7.628 0H2.498A8.53 8.53 0 0 0 6.96 17.94c-.667-1.026-1.202-2.378-1.543-3.939zm12.086 0h-2.918c-.341 1.56-.876 2.913-1.543 3.937A8.52 8.52 0 0 0 17.501 14zM5.158 7.5 1.874 7.5A8.498 8.498 0 0 0 1.5 10c0 .87.13 1.71.374 2.501h3.284C5.055 11.7 5 10.864 5 10c0-.863.055-1.7.158-2.5zm8.17 0H6.672C6.562 8.285 6.5 9.124 6.5 10c0 .876.062 1.714.172 2.5h6.656c.11-.786.172-1.624.172-2.5 0-.875-.061-1.714-.172-2.5zm4.798-.001h-3.284c.103.8.158 1.637.158 2.5 0 .864-.055 1.702-.158 2.5l3.284.001c.243-.79.374-1.63.374-2.501 0-.87-.13-1.71-.374-2.5zM6.96 2.062l-.1.037a8.531 8.531 0 0 0-4.361 3.902L5.416 6c.341-1.56.876-2.914 1.543-3.938zM10 1.5C8.851 1.5 7.606 3.292 6.955 6h6.09c-.63-2.623-1.82-4.387-2.937-4.495L10 1.5zm3.04.56c.671 1.032 1.204 2.383 1.544 3.94h2.918a8.53 8.53 0 0 0-4.461-3.94z" fill="#398684" fill-rule="evenodd">
  </path>
</svg>