<?xml version="1.0" encoding="UTF-8"?>
<svg width="50px" height="47px" viewBox="0 0 50 47" version="1.1" xmlns="http://www.w3.org/2000/svg" xmlns:xlink="http://www.w3.org/1999/xlink">
    <!-- Generator: Sketch 43.2 (39069) - http://www.bohemiancoding.com/sketch -->
    <title>Madaster logo zonder achtergrond</title>
    <desc>Created with Sketch.</desc>
    <defs></defs>
    <g id="MADASTER-OPLOSSING" stroke="none" stroke-width="1" fill="none" fill-rule="evenodd">
        <g id="Startscherm-portfolio-Grid" transform="translate(-43.000000, -47.000000)">
            <g id="LOGO-MADASTER" transform="translate(20.000000, 20.000000)">
                <g id="Madaster-logo-zonder-achtergrond" transform="translate(22.967190, 26.961484)">
                    <polygon id="Fill-2" fill="#FEFEFE" points="42.1395609 30.2768337 42.1395609 0.734664765 34.7433676 0.734664765 34.7433676 8.13085812 27.3471742 8.13085812 27.3471742 15.5270515 34.7433676 15.5270515 34.7433676 30.2768337"></polygon>
                    <polygon id="Fill-3" fill="#FEFEFE" points="12.5546678 8.13088206 12.5546678 0.7346887 5.15847447 0.7346887 5.15847447 37.7158948 12.5546678 37.7158948 12.5546678 15.5270754 19.9508612 15.5270754 19.9508612 8.13088206"></polygon>
                    <polygon id="Fill-4" fill="#FEFEFE" points="19.9508851 22.9233884 27.3470785 22.9233884 27.3470785 15.5271951 19.9508851 15.5271951"></polygon>
                    <polygon id="Fill-5" fill="#FEFEFE" points="42.1394652 37.7157752 49.5358979 37.7157752 49.5358979 30.3198212 42.1394652 30.3198212"></polygon>
                    <polygon id="Fill-6" fill="#D1E2ED" points="6.86258365 40.9027133 8.21300348 44.873072 8.22927936 44.873072 9.5069364 40.9027133 11.2939329 40.9027133 11.2939329 46.6761051 10.1053146 46.6761051 10.1053146 42.5843953 10.0890387 42.5843953 8.67399401 46.6761051 7.69552605 46.6761051 6.28048138 42.6248456 6.2642055 42.6248456 6.2642055 46.6761051 5.07558713 46.6761051 5.07558713 40.9027133"></polygon>
                    <path d="M15.3614443,44.44437 L14.6335772,42.3256326 L14.6175406,42.3256326 L13.865499,44.44437 L15.3614443,44.44437 Z M15.2886816,40.9026894 L17.4476299,46.6760811 L16.1295225,46.6760811 L15.6929458,45.3905255 L13.5339975,45.3905255 L13.0811449,46.6760811 L11.8034878,46.6760811 L13.9866107,40.9026894 L15.2886816,40.9026894 Z" id="Fill-7" fill="#D1E2ED"></path>
                    <path d="M20.3506496,45.6088617 C20.5337533,45.6088617 20.7118307,45.5794215 20.8841636,45.5200624 C21.0567358,45.4607033 21.2103993,45.3623299 21.3451541,45.224703 C21.4799089,45.087076 21.5878563,44.9080412 21.668757,44.6868807 C21.7496577,44.4659595 21.7901081,44.1966893 21.7901081,43.8783521 C21.7901081,43.587301 21.7618646,43.3242539 21.7051384,43.0901684 C21.6484121,42.8553648 21.5555439,42.6547885 21.4260548,42.4874819 C21.2968051,42.3206541 21.1254296,42.1926012 20.9126464,42.1033232 C20.6996237,42.0142845 20.4368161,41.9700045 20.1242233,41.9700045 L19.2185181,41.9700045 L19.2185181,45.6088617 L20.3506496,45.6088617 Z M20.4396883,40.9027372 C20.8116401,40.9027372 21.1579814,40.9620963 21.4787121,41.0803359 C21.7994428,41.1990541 22.0770903,41.3768921 22.3116545,41.6143285 C22.5459794,41.8515256 22.7293224,42.1478425 22.8614443,42.5037578 C22.9935662,42.8596731 23.0596272,43.2773411 23.0596272,43.7572404 C23.0596272,44.1775412 23.0055338,44.5657689 22.8978257,44.9216843 C22.7898783,45.2773602 22.6268801,45.5844479 22.4085918,45.8431866 C22.1903034,46.1021647 21.9179217,46.3056133 21.5919252,46.4537717 C21.2656895,46.6021695 20.8815307,46.676129 20.4396883,46.676129 L17.948999,46.676129 L17.948999,40.9027372 L20.4396883,40.9027372 Z" id="Fill-8" fill="#D1E2ED"></path>
                    <path d="M26.892359,44.44437 L26.1647311,42.3256326 L26.1484552,42.3256326 L25.3964136,44.44437 L26.892359,44.44437 Z M26.8195962,40.9026894 L28.9787839,46.6760811 L27.6606765,46.6760811 L27.2240998,45.3905255 L25.0649121,45.3905255 L24.6120595,46.6760811 L23.3344024,46.6760811 L25.5177647,40.9026894 L26.8195962,40.9026894 Z" id="Fill-10" fill="#D1E2ED"></path>
                    <path d="M30.4506027,45.253114 C30.5204933,45.3876294 30.6136009,45.4972522 30.7294469,45.5805465 C30.8452929,45.6640801 30.9814838,45.7263114 31.1377802,45.7665224 C31.2940765,45.8069728 31.455878,45.8270783 31.6229452,45.8270783 C31.7361583,45.8270783 31.8575094,45.8177436 31.9869984,45.7988348 C32.1162481,45.7799261 32.2375992,45.7435447 32.350573,45.6896907 C32.4640255,45.636076 32.5583299,45.5616377 32.6337256,45.4673333 C32.7093605,45.3730289 32.747178,45.253114 32.747178,45.1075884 C32.747178,44.9510527 32.6971536,44.8244358 32.5975835,44.7274986 C32.497774,44.630322 32.3670882,44.5496606 32.2052868,44.4847964 C32.0434853,44.4201716 31.8601423,44.3634453 31.6552576,44.314857 C31.4503729,44.2665081 31.2430947,44.212654 31.032705,44.1530556 C30.8170495,44.0994409 30.6066597,44.0333799 30.4020144,43.9551121 C30.1968903,43.8770836 30.0137866,43.775838 29.8519852,43.6520934 C29.6904231,43.5281094 29.5594979,43.3730098 29.4599278,43.1867945 C29.3601183,43.0010579 29.3103333,42.7758284 29.3103333,42.511824 C29.3103333,42.2155071 29.373522,41.9577258 29.5003782,41.7394374 C29.626995,41.5211491 29.7926261,41.3392421 29.9975107,41.1937166 C30.2023954,41.048191 30.4343268,40.9402436 30.6930655,40.8701136 C30.9518042,40.8002231 31.2105429,40.7652778 31.469521,40.7652778 C31.771343,40.7652778 32.060958,40.7990263 32.3388448,40.866284 C32.6162529,40.9335417 32.8627847,41.0429253 33.0784402,41.1937166 C33.2940957,41.3447472 33.4654712,41.537425 33.592088,41.7717498 C33.7184655,42.0065534 33.7821329,42.2906634 33.7821329,42.6250371 L32.5528248,42.6250371 C32.542054,42.4524648 32.5056726,42.3095721 32.4436806,42.196359 C32.3816887,42.0831458 32.2995912,41.9943465 32.1971488,41.9294823 C32.0947065,41.8648575 31.9774244,41.818902 31.8453025,41.7920947 C31.7131806,41.7652874 31.5690911,41.7516443 31.4127948,41.7516443 C31.3103524,41.7516443 31.2079101,41.7624151 31.1054677,41.7839568 C31.0030254,41.8054984 30.9101571,41.8433159 30.8263842,41.8971699 C30.7428506,41.9512633 30.6741568,42.018521 30.6203027,42.0994217 C30.5662093,42.1803225 30.539402,42.2827648 30.539402,42.4065094 C30.539402,42.5197225 30.5609436,42.6116334 30.6042662,42.681524 C30.6471101,42.7516539 30.7320798,42.8162788 30.8589359,42.8753985 C30.9853134,42.9347576 31.1607579,42.9941167 31.384312,43.0537152 C31.6081054,43.1130743 31.9005926,43.1882306 32.2617737,43.2799022 C32.3697211,43.3016831 32.5193156,43.3406974 32.7105573,43.3971843 C32.901799,43.4536712 33.0918439,43.5439066 33.280692,43.6681299 C33.4693008,43.7921139 33.6325384,43.9579843 33.769926,44.1652625 C33.9073136,44.3730194 33.9760074,44.6384599 33.9760074,44.9618235 C33.9760074,45.2260673 33.9250256,45.4714023 33.8225833,45.6975893 C33.7199016,45.9242549 33.5676742,46.1198049 33.3656617,46.2839998 C33.1634099,46.4484342 32.9128091,46.5764871 32.61362,46.6681586 C32.314431,46.7598302 31.9680897,46.8055462 31.5743569,46.8055462 C31.256259,46.8055462 30.9477353,46.7662926 30.6485462,46.6882641 C30.3493571,46.6102356 30.0853527,46.4876878 29.8562935,46.3203812 C29.626995,46.1535534 29.445088,45.9402914 29.3103333,45.6817921 C29.1755785,45.422814 29.1107143,45.1157263 29.1162194,44.759811 L30.3455275,44.759811 C30.3455275,44.9539249 30.3804728,45.1185986 30.4506027,45.253114" id="Fill-12" fill="#D1E2ED"></path>
                    <polygon id="Fill-14" fill="#D1E2ED" points="34.2753162 41.9699806 34.2753162 40.9027133 39.0058545 40.9027133 39.0058545 41.9699806 37.2753449 41.9699806 37.2753449 46.6761051 36.0055865 46.6761051 36.0055865 41.9699806"></polygon>
                    <polygon id="Fill-16" fill="#D1E2ED" points="43.9868261 40.9027133 43.9868261 41.9699806 40.9384484 41.9699806 40.9384484 43.2071872 43.7362253 43.2071872 43.7362253 44.1937931 40.9384484 44.1937931 40.9384484 45.6088378 44.0516903 45.6088378 44.0516903 46.6761051 39.66869 46.6761051 39.66869 40.9027133"></polygon>
                    <path d="M47.5691486,43.5145382 C47.8601997,43.5145382 48.0784881,43.449674 48.2240136,43.3204243 C48.3697786,43.1909353 48.442302,42.9807849 48.442302,42.6897337 C48.442302,42.4094534 48.3697786,42.2057655 48.2240136,42.0791487 C48.0784881,41.9527712 47.8601997,41.8891038 47.5691486,41.8891038 L46.1782784,41.8891038 L46.1782784,43.5145382 L47.5691486,43.5145382 Z M48.0220012,40.9027372 C48.2807399,40.9027372 48.513868,40.9443843 48.7213856,41.0279179 C48.9289031,41.1116909 49.1067411,41.2258614 49.2551389,41.3716263 C49.4032973,41.5169126 49.5165105,41.6856552 49.5947783,41.8768969 C49.6728068,42.0683779 49.7120604,42.2746987 49.7120604,42.4953805 C49.7120604,42.8352593 49.6404944,43.1291827 49.4978411,43.3771506 C49.3549483,43.6248791 49.1215809,43.8137273 48.7982173,43.9432163 L48.7982173,43.9590135 C48.9545137,44.0025754 49.0840027,44.068397 49.1864451,44.1574357 C49.2888874,44.246235 49.372421,44.3513102 49.4370458,44.4729007 C49.5016707,44.5940124 49.5488229,44.727331 49.5787418,44.873096 C49.608182,45.0183822 49.6285268,45.1641471 49.6390583,45.3096727 C49.6445634,45.4013442 49.6498291,45.5092916 49.6555735,45.6332756 C49.6605999,45.7570202 49.670174,45.883637 49.683817,46.013126 C49.6972207,46.1423757 49.7185229,46.2651629 49.7482025,46.3812483 C49.7781214,46.4970943 49.8224014,46.5952283 49.8817605,46.676129 L48.6122414,46.676129 C48.5421115,46.492786 48.4990282,46.2744976 48.4827523,46.021264 C48.4667158,45.767791 48.442302,45.5250888 48.4102289,45.2933968 C48.3669063,44.9918142 48.2752348,44.7706536 48.1352143,44.6303938 C47.9949545,44.4901339 47.7658953,44.420004 47.4477975,44.420004 L46.1782784,44.420004 L46.1782784,46.676129 L44.9087593,46.676129 L44.9087593,40.9027372 L48.0220012,40.9027372 Z" id="Fill-18" fill="#D1E2ED"></path>
                    <path d="M2.08118316,41.0184157 C2.16926443,41.0184157 2.24154851,41.0059694 2.29779605,40.9817949 C2.35428295,40.9571418 2.38228705,40.8985007 2.38228705,40.8053931 C2.38228705,40.7639853 2.37247365,40.7307155 2.35284684,40.7060623 C2.33322004,40.6816485 2.30832751,40.6629791 2.27769055,40.649336 C2.24705359,40.635693 2.21282636,40.6265977 2.1747695,40.6218106 C2.13671265,40.6167843 2.10080996,40.6143908 2.06634338,40.6143908 L1.80928013,40.6143908 L1.80928013,41.0184157 L2.08118316,41.0184157 Z M2.08477343,40.3755182 C2.27816925,40.3755182 2.42704574,40.4099848 2.53116353,40.4784392 C2.63504198,40.5468937 2.68722056,40.6644152 2.68722056,40.831243 C2.68722056,40.9023303 2.6766891,40.9628862 2.65586554,41.01315 C2.63504198,41.0631744 2.60631983,41.1041034 2.56969909,41.1359372 C2.53283899,41.1677709 2.48999512,41.1924241 2.44116746,41.209418 C2.39210045,41.2266513 2.33944317,41.2374221 2.28319563,41.2426878 L2.69464045,41.9147862 L2.37510651,41.9147862 L2.00028243,41.2570489 L1.80928013,41.2570489 L1.80928013,41.9147862 L1.50434662,41.9147862 L1.50434662,40.3755182 L2.08477343,40.3755182 Z M1.09673142,41.5806518 C1.15058545,41.7125343 1.22406629,41.8271836 1.31717393,41.9236422 C1.41004222,42.0205794 1.5196651,42.0959751 1.64580321,42.1498291 C1.77194133,42.2036831 1.90717479,42.2304905 2.05174296,42.2304905 C2.19367825,42.2304905 2.32771496,42.2036831 2.45409243,42.1498291 C2.57999119,42.0959751 2.68961407,42.0205794 2.78272171,41.9236422 C2.87582935,41.8271836 2.94978889,41.7125343 3.00483968,41.5806518 C3.06012982,41.4482906 3.08765522,41.3037224 3.08765522,41.1469473 C3.08765522,40.9901722 3.06012982,40.8463221 3.00483968,40.7151576 C2.94978889,40.5844718 2.87582935,40.4712587 2.78272171,40.3755182 C2.68961407,40.280017 2.57999119,40.2053394 2.45409243,40.1514854 C2.32771496,40.0976314 2.19367825,40.0705847 2.05174296,40.0705847 C1.90717479,40.0705847 1.77194133,40.0976314 1.64580321,40.1514854 C1.5196651,40.2053394 1.41004222,40.280017 1.31717393,40.3755182 C1.22406629,40.4712587 1.15058545,40.5844718 1.09673142,40.7151576 C1.04287739,40.8463221 1.01583069,40.9901722 1.01583069,41.1469473 C1.01583069,41.3037224 1.04287739,41.4482906 1.09673142,41.5806518 L1.09673142,41.5806518 Z M0.756852627,40.5813603 C0.834163084,40.4123783 0.93756283,40.2682888 1.06729121,40.1495706 C1.1970196,40.0308524 1.34709284,39.9391808 1.51727159,39.8743167 C1.68745033,39.8092131 1.86552767,39.7769007 2.05174296,39.7769007 C2.23771889,39.7769007 2.41603558,39.8092131 2.58621432,39.8743167 C2.75639307,39.9391808 2.90646631,40.0308524 3.0361947,40.1495706 C3.16592308,40.2682888 3.26932283,40.4123783 3.34663329,40.5813603 C3.42370439,40.7503423 3.46223994,40.9387117 3.46223994,41.1469473 C3.46223994,41.3575764 3.42370439,41.547382 3.34663329,41.716364 C3.26932283,41.885346 3.16592308,42.0299141 3.0361947,42.1498291 C2.90646631,42.2697441 2.75639307,42.361655 2.58621432,42.4253224 C2.41603558,42.4889898 2.23771889,42.5205842 2.05174296,42.5205842 C1.86552767,42.5205842 1.68745033,42.4889898 1.51727159,42.4253224 C1.34709284,42.361655 1.1970196,42.2697441 1.06729121,42.1498291 C0.93756283,42.0299141 0.834163084,41.885346 0.756852627,41.716364 C0.67978152,41.547382 0.641245967,41.3575764 0.641245967,41.1469473 C0.641245967,40.9387117 0.67978152,40.7503423 0.756852627,40.5813603 L0.756852627,40.5813603 Z" id="Fill-20" fill="#D1E2ED"></path>
                </g>
            </g>
        </g>
    </g>
</svg>