<?xml version="1.0" encoding="utf-8"?>
<!-- Generator: Adobe Illustrator 26.0.2, SVG Export Plug-In . SVG Version: 6.00 Build 0)  -->
<svg version="1.1" id="Laag_1" xmlns="http://www.w3.org/2000/svg" xmlns:xlink="http://www.w3.org/1999/xlink" x="0px" y="0px"
	 viewBox="0 0 510.24 425.2" style="enable-background:new 0 0 510.24 425.2;" xml:space="preserve">
<style type="text/css">
	.st0{fill:#388583;}
</style>
<path class="st0" d="M264.97,170.1h65.33c5.42,0,9.86,4.44,9.86,9.86v150.33c0,5.42,4.44,9.86,9.86,9.86h65.33
	c5.44,0,9.86,4.41,9.86,9.86v65.34c0,5.42,4.44,9.86,9.86,9.86h65.33c5.42,0,9.86-4.44,9.86-9.86V350c0-5.42-4.44-9.86-9.86-9.86
	h-65.33c-5.44,0-9.86-4.41-9.86-9.86V9.86c0-5.42-4.44-9.86-9.86-9.86h-65.33c-5.42,0-9.86,4.44-9.86,9.86v65.34
	c0,5.42-4.44,9.86-9.86,9.86h-65.33c-5.42,0-9.86,4.44-9.86,9.86v65.34v-0.01c0,5.44-4.41,9.86-9.86,9.86v0.01h-65.33l0.01-0.01
	c-5.44,0-9.86-4.41-9.86-9.86l-0.01,0.01V94.91c0-5.42-4.44-9.86-9.86-9.86H94.9c-5.42,0-9.86-4.44-9.86-9.86V9.86
	C85.04,4.44,80.6,0,75.18,0H9.86C4.44,0,0,4.44,0,9.86v405.38c0,5.42,4.44,9.86,9.86,9.86h65.33c5.42,0,9.86-4.44,9.86-9.86V179.96
	c0-5.42,4.44-9.86,9.86-9.86h65.33c5.44,0,9.86,4.41,9.86,9.86v65.34c0,5.42,4.44,9.86,9.86,9.86h65.33c5.42,0,9.86-4.44,9.86-9.86
	v-65.34C255.12,174.51,259.53,170.1,264.97,170.1z"/>
</svg>
