<?xml version="1.0" encoding="UTF-8" standalone="no"?>
<svg
   xmlns:dc="http://purl.org/dc/elements/1.1/"
   xmlns:cc="http://creativecommons.org/ns#"
   xmlns:rdf="http://www.w3.org/1999/02/22-rdf-syntax-ns#"
   xmlns:svg="http://www.w3.org/2000/svg"
   xmlns="http://www.w3.org/2000/svg"
   id="svg62"
   version="1.1"
   viewBox="0 0 30 28"
   height="28px"
   width="30px">
  <metadata
     id="metadata66">
    <rdf:RDF>
      <cc:Work
         rdf:about="">
        <dc:format>image/svg+xml</dc:format>
        <dc:type
           rdf:resource="http://purl.org/dc/dcmitype/StillImage" />
        <dc:title>MaterialenExport</dc:title>
      </cc:Work>
    </rdf:RDF>
  </metadata>
  <!-- Generator: Sketch 47.1 (45422) - http://www.bohemiancoding.com/sketch -->
  <title
     id="title39">MaterialenExport</title>
  <desc
     id="desc41">Created with Sketch.</desc>
  <defs
     id="defs43" />
  <g
     fill="none"
     fill-rule="evenodd"
     stroke="none"
     stroke-width="1"
     stroke-linejoin="round"
     id="MADASTER-OPLOSSING">
    <ellipse
       ry="5.0723615"
       rx="5.1492157"
       cy="21.348795"
       cx="22.04995"
       id="Oval-2"
       style="fill:#ffffff;fill-rule:evenodd;stroke:none;stroke-width:1" />
    <path
       d="M 13.438807,22.314142 H 2.4252066 c -0.1395056,0 -0.2737666,-0.0548 -0.3723646,-0.153022 -0.098598,-0.09822 -0.1531414,-0.2316 -0.1520925,-0.369113 0.00105,-0.114766 0.034614,-2.8309 0.5506799,-4.367319 0.4027831,-1.196257 2.3506169,-1.830056 4.8166144,-2.632385 0.6524246,-0.211956 1.3237298,-0.430115 1.9751055,-0.664817 V 12.200241 C 8.733377,11.864213 7.7945987,11.00295 7.681316,9.1728937 7.2963645,8.9361237 7.0540653,8.4212267 7.0540653,7.7657157 c 0,-0.353604 0.075522,-0.6906654 0.2129296,-0.9501818 C 7.3498591,6.6594105 7.4547505,6.5301693 7.5774735,6.4329799 7.3456634,5.6440915 6.9565162,4.2472523 7.657191,3.4966193 7.9540337,3.1802368 8.378844,3.0406563 8.9148392,3.0665045 9.5295029,2.0201676 11.244478,1.6355457 12.652121,1.6355457 c 1.590154,0 3.569455,0.4900827 3.917695,1.869345 0.287402,1.1393907 -0.129016,2.2477634 -0.384952,2.8856981 0.305234,0.2719235 0.491941,0.7485649 0.491941,1.3379049 0,0.671021 -0.242299,1.197291 -0.627251,1.440264 -0.112233,1.8331583 -1.052061,2.6954553 -1.561833,3.0314833 v 1.926211 c 0.757316,0.272957 1.500996,0.514897 2.197476,0.741327 l -0.29999,0.991539 0.16468,-0.491117 -0.193001,0.481812 c -0.813957,-0.264686 -1.689801,-0.550051 -2.578231,-0.880908 -0.204538,-0.07548 -0.339848,-0.267788 -0.339848,-0.482846 v -2.584824 c 0,-0.209888 0.127967,-0.398063 0.324114,-0.47871 0.0451,-0.01964 1.249257,-0.569695 1.249257,-2.6230803 0,-0.286398 0.234957,-0.516964 0.524457,-0.516964 -0.01363,-0.01551 0.09126,-0.20782 0.09126,-0.554187 0,-0.345332 -0.104891,-0.538677 -0.142652,-0.569695 -0.289501,0 -0.473061,-0.2150575 -0.473061,-0.5014561 0,-0.1581912 0.05874,-0.3050092 0.165729,-0.5686613 0.206636,-0.5128292 0.592636,-1.4681803 0.374462,-2.3346135 -0.156288,-0.6172561 -1.403447,-1.0845923 -2.900248,-1.0845923 -1.4968,0 -2.74396,0.4673362 -2.9002482,1.0845923 -0.06818,0.2688218 -0.3377504,0.4404541 -0.612566,0.382554 -0.3492884,-0.068239 -0.6094192,-0.047561 -0.709066,0.059968 -0.31887,0.3401629 0.049299,1.5922518 0.170973,2.0037559 0.07762,0.2677878 0.1174784,0.4021987 0.1174784,0.5314399 0,0.2853646 -0.2349568,0.5169651 -0.5244571,0.5169651 0.00734,0.01447 -0.091256,0.194379 -0.091256,0.516965 0,0.322586 0.098598,0.501456 0.13531,0.530406 0.2895003,0 0.4804027,0.217125 0.4804027,0.503523 0,2.0533853 1.2041536,2.6034363 1.2555504,2.6261823 0.1888048,0.08271 0.3178208,0.27089 0.3178208,0.475608 v 2.584824 c 0,0.214024 -0.134261,0.406335 -0.3377502,0.482846 -0.7688541,0.288466 -1.5765181,0.551084 -2.3569104,0.804397 -1.834551,0.596577 -3.9134991,1.273801 -4.1495048,1.976874 -0.3398482,1.009115 -0.4489353,2.684081 -0.4825006,3.529836 h 10.473406 c 0.2895,0 0.524457,0.2316 0.524457,0.516965 0,0.285364 -0.234957,0.516965 -0.524457,0.516965"
       id="Fill-7"
       style="fill:#003b60;fill-opacity:1;fill-rule:evenodd;stroke:none;stroke-width:1" />
    <g
       id="g5430">
      <path
         style="fill:#003b60;fill-opacity:1;fill-rule:evenodd;stroke:none;stroke-width:1"
         d="m 21.669763,16.310365 c -2.602356,0 -4.720114,2.087504 -4.720114,4.652684 0,2.56518 2.117758,4.652684 4.720114,4.652684 2.602357,0 4.720115,-2.087504 4.720115,-4.652684 0,-2.56518 -2.117758,-4.652684 -4.720115,-4.652684 m 0,10.339298 c -3.181357,0 -5.769028,-2.550705 -5.769028,-5.686614 0,-3.135909 2.587671,-5.686614 5.769028,-5.686614 3.181357,0 5.769029,2.550705 5.769029,5.686614 0,3.135909 -2.587672,5.686614 -5.769029,5.686614"
         id="Fill-1" />
      <g
         id="g5424"
         transform="translate(0.13207547,0.67688679)">
        <path
           style="fill:#003b60;fill-rule:evenodd;stroke:none;stroke-width:0.43083736"
           d="m 21.587104,23.408722 v 4.47e-4 h 0.207323 z m 0,0.44811 c -0.228468,0 -0.414644,-0.200553 -0.414644,-0.447663 0,-0.24711 0.186176,-0.447663 0.414644,-0.447663 0.228469,0 0.414645,0.200553 0.414645,0.447663 0,0.24711 -0.186176,0.447663 -0.414645,0.447663 z"
           id="Fill-3" />
        <path
           style="fill:#003b60;fill-rule:evenodd;stroke:none;stroke-width:1.97499013;stroke-miterlimit:4;stroke-dasharray:none"
           d="m 21.193503,22.336659 v -0.996653 c 0,-0.183384 0.116268,-0.480803 0.300211,-0.480803 0.91838,0 1.699166,-0.596247 1.699166,-1.512505 0,-0.916257 -0.747767,-1.66109 -1.666147,-1.66109 -0.918381,0 -1.666148,0.744833 -1.666148,1.66109 0,0.183384 -0.149287,0.332218 -0.333229,0.332218 -0.183943,0 -0.498324,-0.245429 -0.498324,-0.428813 0,-1.282361 1.211435,-2.411071 2.497701,-2.411071 1.286266,0 2.4977,1.112611 2.4977,2.394972 0,0.454816 -0.04911,0.922953 -0.27644,1.281782 -0.35717,0.56378 -1.000028,1.051035 -1.689917,1.150103 l -0.04953,0.67077 c -0.0135,0.182891 -0.297872,0.332219 -0.481814,0.332219 -0.183943,0 -0.33323,-0.148834 -0.333229,-0.332219 z"
           id="Fill-5" />
      </g>
    </g>
  </g>
  <style
     type="text/css"
     id="style4193">
	.st0{fill:#C5DDE6;}
	.st1{fill:#003B60;}
</style>
  <style
     type="text/css"
     id="style5204">
	.st0{fill:#C5DDE6;}
	.st1{fill:#003B60;}
</style>
</svg>
