<?xml version="1.0" encoding="UTF-8"?>
<svg width="100px" height="100px" viewBox="0 0 100 100" version="1.1" xmlns="http://www.w3.org/2000/svg" xmlns:xlink="http://www.w3.org/1999/xlink">
    <!-- Generator: Sketch 46.2 (44496) - http://www.bohemiancoding.com/sketch -->
    <title>Madaster logo</title>
    <desc>Created with Sketch.</desc>
    <defs></defs>
    <g id="Symbols" stroke="none" stroke-width="1" fill="none" fill-rule="evenodd">
        <g id="Madaster-logo">
            <g>
                <polygon id="achtergrond" fill="#003B60" points="0 99.8783557 99.8783557 99.8783557 99.8783557 0 0 0"></polygon>
                <g id="Group" transform="translate(25.000000, 26.250000)">
                    <polygon id="Fill-2" fill="#FEFEFE" points="42.6470588 30.8823529 42.6470588 0 35.2941176 0 35.2941176 7.73172256 27.9411765 7.73172256 27.9411765 15.4634451 35.2941176 15.4634451 35.2941176 30.8823529"></polygon>
                    <polygon id="Fill-3" fill="#FEFEFE" points="13.2352941 7.64700933 13.2352941 0 5.88235294 0 5.88235294 38.2352941 13.2352941 38.2352941 13.2352941 15.2940187 20.5882353 15.2940187 20.5882353 7.64700933"></polygon>
                    <polygon id="Fill-4" fill="#FEFEFE" points="20.5882353 22.0588235 27.9411765 22.0588235 27.9411765 14.7058824 20.5882353 14.7058824"></polygon>
                    <polygon id="Fill-5" fill="#FEFEFE" points="42.6470588 36.7647059 50 36.7647059 50 29.4117647 42.6470588 29.4117647"></polygon>
                    <polygon id="Fill-6" fill="#D1E2ED" points="7.57279355 41.1764706 8.8502468 45.2217619 8.86564325 45.2217619 10.0742653 41.1764706 11.7647059 41.1764706 11.7647059 47.0588235 10.6403116 47.0588235 10.6403116 42.8898909 10.6249151 42.8898909 9.28632885 47.0588235 8.36072997 47.0588235 7.02214373 42.9311047 7.00674727 42.9311047 7.00674727 47.0588235 5.88235294 47.0588235 5.88235294 41.1764706"></polygon>
                    <path d="M15.4728258,44.7849933 L14.714239,42.626269 L14.6975257,42.626269 L13.9137441,44.7849933 L15.4728258,44.7849933 Z M15.3969921,41.1764706 L17.6470588,47.0588235 L16.2733207,47.0588235 L15.8183183,45.7490056 L13.5682516,45.7490056 L13.0962864,47.0588235 L11.7647059,47.0588235 L14.0399674,41.1764706 L15.3969921,41.1764706 Z" id="Fill-7" fill="#D1E2ED"></path>
                    <path d="M20.6319562,45.9714137 C20.8427093,45.9714137 21.047677,45.9414179 21.2460329,45.8809385 C21.4446642,45.8204591 21.6215315,45.7202291 21.7766348,45.5800047 C21.931738,45.4397803 22.0559859,45.2573667 22.149103,45.0320321 C22.24222,44.8069415 22.2887786,44.5325894 22.2887786,44.2082442 C22.2887786,43.9117001 22.2562702,43.6436886 22.1909781,43.4051851 C22.125686,43.1659501 22.0187942,42.9615883 21.8697518,42.7911242 C21.7209849,42.6211478 21.5237311,42.4906781 21.2788167,42.3997152 C21.0336268,42.3089961 20.7311342,42.2638804 20.3713387,42.2638804 L19.3288685,42.2638804 L19.3288685,45.9714137 L20.6319562,45.9714137 Z M20.7344401,41.1764706 C21.1625581,41.1764706 21.5611983,41.23695 21.9303606,41.357421 C22.2995228,41.4783798 22.6190962,41.6595742 22.8890805,41.9014917 C23.1587894,42.1431655 23.369818,42.4450747 23.5218908,42.8077072 C23.6739636,43.1703397 23.75,43.5958903 23.75,44.0848467 C23.75,44.5130799 23.6877383,44.9086347 23.5637659,45.2712672 C23.439518,45.6336558 23.2519064,45.9465391 23.0006557,46.210161 C22.7494049,46.4740268 22.4358925,46.681315 22.0606693,46.8322697 C21.6851707,46.9834682 21.2430024,47.0588235 20.7344401,47.0588235 L17.8676471,47.0588235 L17.8676471,41.1764706 L20.7344401,41.1764706 Z" id="Fill-8" fill="#D1E2ED"></path>
                    <path d="M27.2373745,44.7849933 L26.4790693,42.626269 L26.4621072,42.626269 L25.6783589,44.7849933 L27.2373745,44.7849933 Z M27.1615439,41.1764706 L29.4117647,47.0588235 L28.0380849,47.0588235 L27.5831018,45.7490056 L25.332881,45.7490056 L24.8609358,47.0588235 L23.5294118,47.0588235 L25.8048262,41.1764706 L27.1615439,41.1764706 Z" id="Fill-10" fill="#D1E2ED"></path>
                    <path d="M30.6233441,45.5469777 C30.6867872,45.6779764 30.7713056,45.7847333 30.8764648,45.8658499 C30.981624,45.9471996 31.1052513,46.007804 31.2471293,46.0469637 C31.3890073,46.0863566 31.5358825,46.1059364 31.6875377,46.1059364 C31.7903069,46.1059364 31.9004633,46.0968458 32.018007,46.0784314 C32.1353333,46.060017 32.2454897,46.0245867 32.3480417,45.9721406 C32.4510282,45.9199276 32.536633,45.8474355 32.6050733,45.7555966 C32.673731,45.6637577 32.7080598,45.5469777 32.7080598,45.4052567 C32.7080598,45.2528134 32.6626502,45.1295069 32.5722654,45.0351039 C32.4816634,44.9404679 32.3630334,44.8619153 32.2161582,44.7987469 C32.0692829,44.7358116 31.9028533,44.6805684 31.7168693,44.6332504 C31.5308853,44.5861654 31.3427285,44.5337193 31.1517473,44.475679 C30.955986,44.423466 30.7650048,44.3591321 30.579238,44.2829105 C30.3930367,44.206922 30.2268244,44.1083233 30.0799492,43.9878139 C29.9332912,43.8670713 29.8144439,43.7160266 29.7240592,43.5346797 C29.6334571,43.353799 29.5882648,43.1344578 29.5882648,42.8773554 C29.5882648,42.5887854 29.6456243,42.3377435 29.760778,42.125162 C29.8757144,41.9125805 30.0260659,41.7354293 30.21205,41.5937083 C30.398034,41.4519874 30.6085696,41.3468621 30.8434396,41.2785656 C31.0783096,41.2105023 31.3131797,41.1764706 31.5482669,41.1764706 C31.8222457,41.1764706 32.0851437,41.2093368 32.3373954,41.2748361 C32.5892126,41.3403355 32.8130017,41.4468593 33.008763,41.5937083 C33.2045242,41.7407905 33.3600903,41.9284309 33.4750266,42.1566297 C33.5897458,42.3852946 33.6475399,42.6619768 33.6475399,42.9876087 L32.5316357,42.9876087 C32.5218585,42.8195482 32.4888333,42.6803912 32.4325601,42.5701379 C32.3762869,42.4598846 32.301763,42.3734068 32.2087709,42.3102384 C32.1157789,42.2473031 32.0093161,42.2025491 31.8893825,42.1764426 C31.7694489,42.1503361 31.6386517,42.1370498 31.4967737,42.1370498 C31.4037817,42.1370498 31.3107897,42.147539 31.2177977,42.1685174 C31.1248057,42.1894959 31.0405045,42.2263247 30.9644596,42.2787708 C30.888632,42.3314499 30.8262752,42.3969493 30.7773892,42.4757349 C30.728286,42.5545206 30.7039516,42.6542847 30.7039516,42.7747942 C30.7039516,42.8850475 30.723506,42.9745555 30.7628321,43.0426189 C30.8017236,43.1109153 30.8788548,43.1738506 30.9940085,43.2314248 C31.1087276,43.289232 31.2679873,43.3470392 31.4709184,43.4050796 C31.6740669,43.4628868 31.9395721,43.5360782 32.2674341,43.6253531 C32.3654234,43.6465647 32.5012178,43.6845589 32.6748174,43.7395691 C32.8484169,43.7945792 33.0209301,43.8824555 33.192357,44.0034311 C33.3635666,44.1241737 33.5117454,44.2857076 33.636459,44.4875668 C33.7611726,44.6898921 33.8235294,44.9483931 33.8235294,45.2633027 C33.8235294,45.5206381 33.7772507,45.7595592 33.6842587,45.9798327 C33.5910494,46.2005725 33.452865,46.39101 33.2694882,46.5509123 C33.0858942,46.7110477 32.8584114,46.8357528 32.5868226,46.9250277 C32.3152338,47.0143026 32.0008425,47.0588235 31.6434317,47.0588235 C31.3546784,47.0588235 31.074616,47.0205962 30.8030272,46.9446076 C30.5314384,46.8686191 30.2917884,46.7492751 30.08386,46.5863426 C29.8757144,46.4238763 29.7105884,46.2161898 29.5882648,45.9644485 C29.4659412,45.7122411 29.4070607,45.4131819 29.4120579,45.0665716 L30.5279621,45.0665716 C30.5279621,45.2556106 30.5596836,45.415979 30.6233441,45.5469777" id="Fill-12" fill="#D1E2ED"></path>
                    <polygon id="Fill-14" fill="#D1E2ED" points="34.2941176 42.2638804 34.2941176 41.1764706 38.7058824 41.1764706 38.7058824 42.2638804 37.0919854 42.2638804 37.0919854 47.0588235 35.9077913 47.0588235 35.9077913 42.2638804"></polygon>
                    <polygon id="Fill-16" fill="#D1E2ED" points="44.2729454 41.1764706 44.2729454 42.2638804 41.2045621 42.2638804 41.2045621 43.5244368 44.0207 43.5244368 44.0207 44.5296629 41.2045621 44.5296629 41.2045621 45.9714137 44.3382353 45.9714137 44.3382353 47.0588235 39.9264706 47.0588235 39.9264706 41.1764706"></polygon>
                    <path d="M47.9483818,43.837564 C48.2065859,43.837564 48.400239,43.7714757 48.529341,43.6397867 C48.6586554,43.5078538 48.722994,43.2937372 48.722994,42.9971931 C48.722994,42.711623 48.6586554,42.5040909 48.529341,42.3750844 C48.400239,42.2463219 48.2065859,42.1814528 47.9483818,42.1814528 L46.7144807,42.1814528 L46.7144807,43.837564 L47.9483818,43.837564 Z M48.350127,41.1764706 C48.5796653,41.1764706 48.7864834,41.2189037 48.9705812,41.3040138 C49.154679,41.3893678 49.3124467,41.5056931 49.4440968,41.654209 C49.5755346,41.8022372 49.6759709,41.9741646 49.7454057,42.1690155 C49.8146282,42.3641104 49.8494517,42.574325 49.8494517,42.7991718 C49.8494517,43.1454651 49.7859624,43.4449357 49.6594085,43.6975835 C49.5326421,43.9499874 49.3256117,44.1423997 49.0387419,44.2743326 L49.0387419,44.2904279 C49.1773992,44.334812 49.2922745,44.4018758 49.3831556,44.4925949 C49.4740366,44.5830702 49.5481429,44.6901284 49.6054744,44.8140137 C49.6628059,44.9374111 49.7046366,45.0732459 49.731179,45.2217619 C49.7572967,45.3697901 49.7753455,45.518306 49.7846884,45.6665781 C49.7895722,45.7599797 49.7942436,45.8699644 49.7993398,45.9962883 C49.8037989,46.1223684 49.8122924,46.2513748 49.8243958,46.3833077 C49.8362867,46.5149967 49.8551849,46.6401013 49.8815149,46.7583775 C49.9080573,46.8764099 49.94734,46.976396 50,47.0588235 L48.8737546,47.0588235 C48.8115393,46.8720202 48.7733183,46.6496121 48.7588793,46.3915992 C48.7446526,46.1333424 48.722994,45.8860597 48.6945406,45.649995 C48.6561073,45.3427206 48.5747815,45.1173861 48.4505633,44.9744792 C48.3261327,44.8315722 48.1229244,44.7601187 47.840726,44.7601187 L46.7144807,44.7601187 L46.7144807,47.0588235 L45.5882353,47.0588235 L45.5882353,41.1764706 L48.350127,41.1764706 Z" id="Fill-18" fill="#D1E2ED"></path>
                    <path d="M1.50128268,41.0367628 C1.59311646,41.0367628 1.66848005,41.0234206 1.72712391,40.997506 C1.78601731,40.9710783 1.81521446,40.9082162 1.81521446,40.8084066 C1.81521446,40.7640182 1.80498298,40.7283536 1.78452002,40.7019259 C1.76405706,40.6757547 1.73810403,40.6557415 1.70616185,40.6411164 C1.67421966,40.6264914 1.63853425,40.6167413 1.59885607,40.6116097 C1.55917789,40.6062216 1.52174564,40.6036558 1.48581068,40.6036558 L1.21779579,40.6036558 L1.21779579,41.0367628 L1.50128268,41.0367628 Z M1.5050259,40.3475889 C1.70666094,40.3475889 1.86188,40.3845364 1.97043352,40.4579183 C2.07873749,40.5313002 2.13313902,40.657281 2.13313902,40.8361172 C2.13313902,40.9123215 2.12215889,40.9772362 2.10044819,41.031118 C2.07873749,41.0847432 2.04879169,41.1286184 2.01061079,41.1627436 C1.97218035,41.1968687 1.9275112,41.2232964 1.87660335,41.2415136 C1.82544594,41.2599874 1.77054531,41.2715335 1.71190146,41.2771782 L2.14087502,41.9976549 L1.80772801,41.9976549 L1.41693535,41.292573 L1.21779579,41.292573 L1.21779579,41.9976549 L0.899871233,41.9976549 L0.899871233,40.3475889 L1.5050259,40.3475889 Z M0.474890448,41.6394692 C0.53103882,41.7808448 0.607650153,41.9037466 0.704724449,42.0071483 C0.801549196,42.1110632 0.915842325,42.1918859 1.04735429,42.2496164 C1.17886625,42.3073469 1.31986105,42.3360839 1.47058824,42.3360839 C1.61857039,42.3360839 1.75831745,42.3073469 1.89007896,42.2496164 C2.02134137,42.1918859 2.1356345,42.1110632 2.2327088,42.0071483 C2.32978309,41.9037466 2.40689352,41.7808448 2.46428964,41.6394692 C2.5219353,41.4975805 2.55063335,41.3426061 2.55063335,41.1745462 C2.55063335,41.0064863 2.5219353,40.8522818 2.46428964,40.7116759 C2.40689352,40.5715833 2.32978309,40.4502209 2.2327088,40.3475889 C2.1356345,40.2452135 2.02134137,40.1651605 1.89007896,40.10743 C1.75831745,40.0496995 1.61857039,40.020706 1.47058824,40.020706 C1.31986105,40.020706 1.17886625,40.0496995 1.04735429,40.10743 C0.915842325,40.1651605 0.801549196,40.2452135 0.704724449,40.3475889 C0.607650153,40.4502209 0.53103882,40.5715833 0.474890448,40.7116759 C0.418742077,40.8522818 0.390543117,41.0064863 0.390543117,41.1745462 C0.390543117,41.3426061 0.418742077,41.4975805 0.474890448,41.6394692 L0.474890448,41.6394692 Z M0.120531837,40.5682477 C0.201135944,40.3871022 0.308940817,40.2326411 0.444196005,40.1053774 C0.579451193,39.9781137 0.735917988,39.8798436 0.913346842,39.8103104 C1.0907757,39.7405207 1.27643964,39.7058824 1.47058824,39.7058824 C1.66448728,39.7058824 1.85040077,39.7405207 2.02782963,39.8103104 C2.20525848,39.8798436 2.36172528,39.9781137 2.49698047,40.1053774 C2.63223565,40.2326411 2.74004053,40.3871022 2.82064463,40.5682477 C2.90099919,40.7493932 2.94117647,40.9513216 2.94117647,41.1745462 C2.94117647,41.4003366 2.90099919,41.6038046 2.82064463,41.78495 C2.74004053,41.9660955 2.63223565,42.1210698 2.49698047,42.2496164 C2.36172528,42.378163 2.20525848,42.4766897 2.02782963,42.54494 C1.85040077,42.6131903 1.66448728,42.6470588 1.47058824,42.6470588 C1.27643964,42.6470588 1.0907757,42.6131903 0.913346842,42.54494 C0.735917988,42.4766897 0.579451193,42.378163 0.444196005,42.2496164 C0.308940817,42.1210698 0.201135944,41.9660955 0.120531837,41.78495 C0.0401772791,41.6038046 0,41.4003366 0,41.1745462 C0,40.9513216 0.0401772791,40.7493932 0.120531837,40.5682477 L0.120531837,40.5682477 Z" id="Fill-20" fill="#D1E2ED"></path>
                </g>
            </g>
        </g>
    </g>
</svg>